<svg width="34" height="39" viewBox="0 0 34 39" fill="none" xmlns="http://www.w3.org/2000/svg">
<path d="M25.866 6.57091C25.866 5.66805 25.5547 4.81811 24.9905 4.17952L22.1734 0.990951C21.6171 0.361159 20.8273 0 20.0413 0H19.8701V6.76468H25.8661L25.866 6.57091Z" fill="#2405F2"/>
<path d="M18.1911 23.2658C18.3818 22.6106 18.7145 22.0007 19.1483 21.5063L25.8927 13.9034V9.01957H18.8934C18.3429 9.01957 17.9297 8.5153 17.9297 7.89213V0H2.98828C1.34048 0 0 1.51724 0 3.38234V35.1012C0 36.9663 1.34048 38.4835 2.98828 38.4835H22.8778C24.5256 38.4835 25.8927 36.9663 25.8927 35.1012V26.6866L24.798 27.8955C24.3545 28.3932 23.8351 28.7554 23.2494 28.9767L20.0822 30.1736L19.5997 30.2033C18.802 30.2033 18.0472 29.764 17.5783 29.0285C17.1134 28.2964 16.9869 27.3473 17.2398 26.4896L18.1911 23.2658ZM4.98047 20.294H14.9091C15.4596 20.294 15.9052 20.7983 15.9052 21.4215C15.9052 22.0447 15.4596 22.5489 14.9091 22.5489H4.98047C4.42989 22.5489 3.98438 22.0447 3.98438 21.4215C3.98438 20.7983 4.42989 20.294 4.98047 20.294ZM3.98438 16.9117C3.98438 16.2885 4.42989 15.7843 4.98047 15.7843H14.9091C15.4596 15.7843 15.9052 16.2885 15.9052 16.9117C15.9052 17.5349 15.4596 18.0391 14.9091 18.0391H4.98047C4.42989 18.0391 3.98438 17.5349 3.98438 16.9117ZM3.98438 25.9313C3.98438 25.3081 4.42989 24.8038 4.98047 24.8038H14.9091C15.4596 24.8038 15.9052 25.3081 15.9052 25.9313C15.9052 26.5545 15.4596 27.0587 14.9091 27.0587H4.98047C4.42989 27.0587 3.98438 26.5545 3.98438 25.9313ZM18.8934 31.5685C19.444 31.5685 19.8895 32.0728 19.8895 32.696C19.8895 33.3191 19.4441 33.8234 18.8934 33.8234H12.9169C12.3663 33.8234 11.9208 33.3191 11.9208 32.696C11.9208 32.0728 12.3663 31.5685 12.9169 31.5685H18.8934ZM4.98047 13.5294C4.42989 13.5294 3.98438 13.0251 3.98438 12.4019C3.98438 11.7787 4.42989 11.2745 4.98047 11.2745H18.8934C19.444 11.2745 19.8895 11.7787 19.8895 12.4019C19.8895 13.0251 19.444 13.5294 18.8934 13.5294H4.98047Z" fill="#2405F2"/>
<path d="M19.9956 24.2633L19.129 27.2055C18.9991 27.6462 19.3697 28.0655 19.7592 27.9182L22.3575 26.9362L19.9956 24.2633Z" fill="#2405F2"/>
<path d="M27.7321 14.9807L21.1719 22.406L24.0011 25.6083C25.4838 23.9298 28.3689 20.6639 30.561 18.1827L27.7321 14.9807Z" fill="#2405F2"/>
<path d="M33.4149 11.7462C33.0648 11.3476 32.5492 11.1198 32.0025 11.1198C31.4557 11.1198 30.9402 11.3476 30.5881 11.7474L29.1406 13.3857L31.9694 16.5875C32.7618 15.6905 33.3095 15.0705 33.417 14.949C34.1951 14.067 34.195 12.6303 33.4149 11.7462Z" fill="#2405F2"/>
</svg>
