<svg width="32" height="32" viewBox="0 0 32 32" fill="none" xmlns="http://www.w3.org/2000/svg">
<path d="M15.9998 12.309C19.0029 12.309 21.4373 9.5535 21.4373 6.15448C21.4373 2.75545 19.0029 0 15.9998 0C12.9968 0 10.5624 2.75545 10.5624 6.15448C10.5624 9.5535 12.9968 12.309 15.9998 12.309Z" fill="#2405F2"/>
<path d="M27 12.309C28.8984 12.309 30.4374 10.567 30.4374 8.41823C30.4374 6.26942 28.8984 4.52747 27 4.52747C25.1015 4.52747 23.5625 6.26942 23.5625 8.41823C23.5625 10.567 25.1015 12.309 27 12.309Z" fill="#2405F2"/>
<path d="M4.99997 12.309C6.89843 12.309 8.43744 10.567 8.43744 8.41823C8.43744 6.26942 6.89843 4.52747 4.99997 4.52747C3.10151 4.52747 1.5625 6.26942 1.5625 8.41823C1.5625 10.567 3.10151 12.309 4.99997 12.309Z" fill="#2405F2"/>
<path d="M8.3868 15.8024C7.03369 14.5476 5.80826 14.7137 4.24371 14.7137C1.90373 14.7137 0 16.8557 0 19.488V27.2137C0 28.3568 0.824368 29.2864 1.83811 29.2864C6.21469 29.2864 5.68745 29.376 5.68745 29.0727C5.68745 23.5984 5.11458 19.5837 8.3868 15.8024Z" fill="#2405F2"/>
<path d="M17.4882 14.7425C14.7555 14.4845 12.3802 14.7455 10.3314 16.6596C6.90288 19.768 7.56268 23.9532 7.56268 29.0733C7.56268 30.4279 8.53642 31.5506 9.75141 31.5506C22.9439 31.5506 23.469 32.0323 24.2513 30.0714C24.5078 29.4083 24.4375 29.619 24.4375 23.2753C24.4375 18.2367 20.583 14.7425 17.4882 14.7425Z" fill="#2405F2"/>
<path d="M27.7564 14.7147C26.1833 14.7147 24.9646 14.5503 23.6133 15.8034C26.8611 19.5567 26.3126 23.2974 26.3126 29.0738C26.3126 29.379 25.8749 29.2874 30.0963 29.2874C31.1463 29.2874 32.0001 28.3246 32.0001 27.1411V19.4891C32.0001 16.8568 30.0963 14.7147 27.7564 14.7147Z" fill="#2405F2"/>
</svg>
