<svg width="661" height="458" viewBox="0 0 661 458" fill="none" xmlns="http://www.w3.org/2000/svg">
<path d="M80 17.0253C80 7.62247 87.6225 0 97.0253 0H541.475C550.877 0 558.5 7.62248 558.5 17.0253V344.09C558.5 353.493 550.877 361.115 541.475 361.115H97.0253C87.6225 361.115 80 353.493 80 344.09V17.0253Z" fill="url(#paint0_linear_1_12)"/>
<path fill-rule="evenodd" clip-rule="evenodd" d="M541.225 1.79213H96.7753C88.3622 1.79213 81.5421 8.61224 81.5421 17.0253V344.09C81.5421 352.503 88.3622 359.323 96.7753 359.323H541.225C549.638 359.323 556.458 352.503 556.458 344.09V17.0253C556.458 8.61225 549.638 1.79213 541.225 1.79213ZM96.7753 0C87.3725 0 79.75 7.62247 79.75 17.0253V344.09C79.75 353.493 87.3725 361.115 96.7753 361.115H541.225C550.627 361.115 558.25 353.493 558.25 344.09V17.0253C558.25 7.62248 550.627 0 541.225 0H96.7753Z" fill="url(#paint1_linear_1_12)"/>
<path d="M364.699 281.816C364.699 278.103 367.71 275.093 371.425 275.093H390.761C394.475 275.093 397.486 278.103 397.486 281.816V301.147C397.486 304.861 394.475 307.871 390.761 307.871H371.425C367.71 307.871 364.699 304.861 364.699 301.147V281.816Z" fill="#51CB9C"/>
<path d="M376.263 297.786L370.583 291.468L376.263 285.179H378.974L373.27 291.468L378.974 297.786H376.263Z" fill="white"/>
<path d="M383.186 285.179H385.896L391.6 291.468L385.896 297.786H383.186L388.89 291.468L383.186 285.179Z" fill="white"/>
<path d="M258.066 103.499C258.066 99.7857 261.078 96.7754 264.792 96.7754H284.128C287.842 96.7754 290.853 99.7857 290.853 103.499V122.83C290.853 126.543 287.842 129.553 284.128 129.553H264.792C261.078 129.553 258.066 126.543 258.066 122.83V103.499Z" fill="#1ABCFE"/>
<path fill-rule="evenodd" clip-rule="evenodd" d="M277.349 109.139L274.687 105.066H266.7V122.716H282.673V109.139H277.349ZM280.572 111.241H276.212L273.549 107.168H268.802V120.615H280.572V111.241Z" fill="white"/>
<path fill-rule="evenodd" clip-rule="evenodd" d="M182.798 92.2951H10.7528C5.80397 92.2951 1.79213 96.3069 1.79213 101.256V212.368C1.79213 217.317 5.80397 221.329 10.7528 221.329H182.798C187.747 221.329 191.758 217.317 191.758 212.368V101.256C191.758 96.3069 187.747 92.2951 182.798 92.2951ZM10.7528 90.5029C4.8142 90.5029 0 95.3171 0 101.256V212.368C0 218.307 4.8142 223.121 10.7528 223.121H182.798C188.736 223.121 193.551 218.307 193.551 212.368V101.256C193.551 95.3171 188.736 90.5029 182.798 90.5029H10.7528Z" fill="url(#paint2_linear_1_12)"/>
<path d="M90.5039 33.6028C90.5039 23.4576 98.7282 15.2334 108.873 15.2334H521.96C532.105 15.2334 540.33 23.4576 540.33 33.6028C540.33 43.7479 532.105 51.9722 521.96 51.9722H108.873C98.7281 51.9722 90.5039 43.7479 90.5039 33.6028Z" fill="url(#paint3_linear_1_12)"/>
<path d="M123.343 33.8045C123.343 37.1979 120.591 39.9488 117.197 39.9488C113.802 39.9488 111.051 37.1979 111.051 33.8045C111.051 30.4111 113.802 27.6602 117.197 27.6602C120.591 27.6602 123.343 30.4111 123.343 33.8045Z" fill="#FED280"/>
<path d="M144.855 33.8045C144.855 37.1979 142.103 39.9488 138.709 39.9488C135.314 39.9488 132.562 37.1979 132.562 33.8045C132.562 30.4111 135.314 27.6602 138.709 27.6602C142.103 27.6602 144.855 30.4111 144.855 33.8045Z" fill="#8CFEE3" fill-opacity="0.9"/>
<path d="M166.368 33.8045C166.368 37.1979 163.617 39.9488 160.222 39.9488C156.828 39.9488 154.076 37.1979 154.076 33.8045C154.076 30.4111 156.828 27.6602 160.222 27.6602C163.617 27.6602 166.368 30.4111 166.368 33.8045Z" fill="#FF8DA9" fill-opacity="0.9"/>
<path fill-rule="evenodd" clip-rule="evenodd" d="M192.43 153.228C192.43 152.609 192.931 152.107 193.55 152.107H327.08V178.486C327.08 179.105 326.578 179.606 325.96 179.606C325.341 179.606 324.84 179.105 324.84 178.486V154.348H193.55C192.931 154.348 192.43 153.846 192.43 153.228Z" fill="url(#paint4_linear_1_12)"/>
<path fill-rule="evenodd" clip-rule="evenodd" d="M467.075 255.379C467.075 255.998 466.574 256.499 465.955 256.499L325.256 256.499L325.256 231.121C325.256 230.502 325.758 230 326.376 230C326.995 230 327.497 230.502 327.497 231.121L327.497 254.259L465.955 254.259C466.574 254.259 467.075 254.76 467.075 255.379Z" fill="url(#paint5_linear_1_12)"/>
<path fill-rule="evenodd" clip-rule="evenodd" d="M277.099 298C276.492 298 276 297.671 276 297.265L276 205H300.901C301.508 205 302 205.329 302 205.735C302 206.14 301.508 206.469 300.901 206.469H278.198V297.265C278.198 297.671 277.706 298 277.099 298Z" fill="url(#paint6_linear_1_12)"/>
<g filter="url(#filter0_d_1_12)">
<path fill-rule="evenodd" clip-rule="evenodd" d="M324.056 199.554C324.05 199.771 324.089 199.875 324.287 199.875H329.06C329.924 199.939 330.697 200.155 331.351 200.575C331.805 200.866 332.137 201.213 332.387 201.597C332.83 202.278 333.081 203.261 333.217 204.055C333.275 204.398 333.302 204.719 333.24 204.867C333.21 204.938 333.166 204.985 333.107 205.007C332.779 205.132 332.432 204.704 332.247 204.499C331.367 203.524 330.088 203.121 328.579 203.045H324.216C324.06 203.071 324.004 203.18 324.02 203.349V204.512C324.011 204.899 323.805 205.031 323.397 204.9L319.64 202.108L319.27 201.834L319.176 201.764C318.874 201.506 318.998 201.272 319.269 201.07L319.556 200.856L323.156 198.173C323.595 197.845 324.056 197.758 324.056 198.464V199.554ZM328.236 211.427C328.242 211.211 328.203 211.107 328.005 211.107H323.232C322.368 211.043 321.595 210.827 320.941 210.407C320.484 210.113 320.151 209.765 319.901 209.378C319.448 208.678 319.153 207.539 319.044 206.721C319.01 206.46 319.002 206.233 319.052 206.114C319.082 206.044 319.126 205.997 319.185 205.974C319.513 205.85 319.86 206.278 320.045 206.482C320.925 207.457 322.205 207.861 323.713 207.936H328.076C328.232 207.911 328.288 207.801 328.272 207.633V206.469C328.281 206.082 328.487 205.951 328.895 206.081L332.652 208.873L333.022 209.148L333.116 209.218C333.418 209.475 333.294 209.709 333.023 209.912L332.736 210.125L329.137 212.809C328.697 213.136 328.237 213.224 328.237 212.518L328.236 211.427Z" fill="#88F1DB"/>
</g>
<path d="M248.211 153.227C248.211 158.176 244.2 162.188 239.251 162.188C234.302 162.188 230.29 158.176 230.29 153.227C230.29 148.278 234.302 144.267 239.251 144.267C244.2 144.267 248.211 148.278 248.211 153.227Z" fill="#383A68"/>
<path fill-rule="evenodd" clip-rule="evenodd" d="M239.251 160.396C243.21 160.396 246.419 157.186 246.419 153.227C246.419 149.268 243.21 146.059 239.251 146.059C235.292 146.059 232.082 149.268 232.082 153.227C232.082 157.186 235.292 160.396 239.251 160.396ZM239.251 162.188C244.2 162.188 248.211 158.176 248.211 153.227C248.211 148.278 244.2 144.267 239.251 144.267C234.302 144.267 230.29 148.278 230.29 153.227C230.29 158.176 234.302 162.188 239.251 162.188Z" fill="#63648A"/>
<path d="M443.552 255.38C443.552 260.328 439.54 264.34 434.592 264.34C429.643 264.34 425.631 260.328 425.631 255.38C425.631 250.431 429.643 246.419 434.592 246.419C439.54 246.419 443.552 250.431 443.552 255.38Z" fill="#383A68"/>
<path fill-rule="evenodd" clip-rule="evenodd" d="M434.592 262.548C438.551 262.548 441.76 259.339 441.76 255.38C441.76 251.421 438.551 248.211 434.592 248.211C430.632 248.211 427.423 251.421 427.423 255.38C427.423 259.339 430.632 262.548 434.592 262.548ZM434.592 264.34C439.54 264.34 443.552 260.328 443.552 255.38C443.552 250.431 439.54 246.419 434.592 246.419C429.643 246.419 425.631 250.431 425.631 255.38C425.631 260.328 429.643 264.34 434.592 264.34Z" fill="#63648A"/>
<path d="M134.41 165.327C134.41 161.614 137.421 158.604 141.136 158.604H160.472C164.186 158.604 167.197 161.614 167.197 165.327V184.658C167.197 188.371 164.186 191.382 160.472 191.382H141.136C137.421 191.382 134.41 188.371 134.41 184.658V165.327Z" fill="#767799"/>
<path d="M0 101.256C0 95.3171 4.8142 90.5029 10.7528 90.5029H182.798C188.736 90.5029 193.551 95.3171 193.551 101.256V212.368C193.551 218.307 188.736 223.121 182.798 223.121H10.7528C4.8142 223.121 0 218.307 0 212.368V101.256Z" fill="url(#paint7_linear_1_12)"/>
<path d="M21.5059 125.45C21.5059 122.48 23.913 120.073 26.8823 120.073H77.062C80.0313 120.073 82.4384 122.48 82.4384 125.45V182.798C82.4384 185.767 80.0313 188.174 77.062 188.174H26.8823C23.913 188.174 21.5059 185.767 21.5059 182.798V125.45Z" fill="white" fill-opacity="0.17"/>
<path d="M94.0859 125.002C94.0859 122.28 96.2924 120.073 99.0143 120.073H162.635C165.357 120.073 167.563 122.28 167.563 125.002C167.563 127.723 165.357 129.93 162.635 129.93H99.0143C96.2924 129.93 94.0859 127.723 94.0859 125.002Z" fill="white" fill-opacity="0.6"/>
<path d="M94.0859 143.819C94.0859 141.097 96.2924 138.891 99.0143 138.891H162.635C165.357 138.891 167.563 141.097 167.563 143.819C167.563 146.541 165.357 148.747 162.635 148.747H99.0143C96.2924 148.747 94.0859 146.541 94.0859 143.819Z" fill="white" fill-opacity="0.26"/>
<path d="M94.0859 175.181C94.0859 166.025 101.508 158.604 110.663 158.604H111.559C120.715 158.604 128.136 166.025 128.136 175.181C128.136 184.336 120.715 191.758 111.559 191.758H110.663C101.508 191.758 94.0859 184.336 94.0859 175.181Z" fill="#767799"/>
<path d="M48.195 152.971C46.5054 150.767 43.139 150.914 41.6469 153.256L29.7979 171.857C28.1017 174.52 30.0144 178.006 33.1716 178.006H70.9104C74.1764 178.006 76.0658 174.303 74.1494 171.659L67.458 162.425C65.977 160.381 62.9963 160.203 61.2825 162.056L61.1577 162.191C59.4737 164.012 56.5556 163.877 55.0466 161.909L48.195 152.971Z" fill="white"/>
<path d="M71.479 140.027C71.479 143.243 68.8713 145.851 65.6545 145.851C62.4378 145.851 59.8301 143.243 59.8301 140.027C59.8301 136.81 62.4378 134.202 65.6545 134.202C68.8713 134.202 71.479 136.81 71.479 140.027Z" fill="#C4C5DC"/>
<path fill-rule="evenodd" clip-rule="evenodd" d="M154.065 184.393H148.007V181.872H154.065V184.393Z" fill="white"/>
<path fill-rule="evenodd" clip-rule="evenodd" d="M142.396 167.429H159.21V171.485H156.688V169.95H144.919V171.485H142.396V167.429Z" fill="white"/>
<path fill-rule="evenodd" clip-rule="evenodd" d="M149.699 183.274L149.854 168.831L152.376 168.858L152.22 183.301L149.699 183.274Z" fill="white"/>
<path d="M221 304.541C221 297.062 223.612 291 226.833 291H320.167C323.388 291 326 297.062 326 304.541V444.459C326 451.938 323.388 458 320.167 458H226.833C223.612 458 221 451.938 221 444.459V304.541Z" fill="url(#paint8_linear_1_12)"/>
<path d="M233 311.026C233 307.146 236.121 304 239.971 304H305.029C308.879 304 312 307.146 312 311.026V385.974C312 389.854 308.879 393 305.029 393H239.971C236.121 393 233 389.854 233 385.974V311.026Z" fill="white" fill-opacity="0.17"/>
<path d="M237 414.928C237 412.207 239.207 410 241.928 410H305.549C308.271 410 310.478 412.207 310.478 414.928C310.478 417.65 308.271 419.857 305.549 419.857H241.928C239.207 419.857 237 417.65 237 414.928Z" fill="white" fill-opacity="0.6"/>
<path d="M237 433.746C237 431.024 239.207 428.817 241.928 428.817H305.549C308.271 428.817 310.478 431.024 310.478 433.746C310.478 436.468 308.271 438.674 305.549 438.674H241.928C239.207 438.674 237 436.468 237 433.746Z" fill="white" fill-opacity="0.26"/>
<path d="M266.042 345.441C264.351 343.269 261.023 343.414 259.528 345.725L241.994 372.827C240.272 375.489 242.182 379 245.352 379H299.09C302.369 379 304.255 375.27 302.311 372.629L291.375 357.77C289.894 355.757 286.949 355.58 285.238 357.402L283.035 359.748C281.354 361.538 278.472 361.404 276.963 359.467L266.042 345.441Z" fill="white"/>
<path d="M298 329.5C298 333.642 294.642 337 290.5 337C286.358 337 283 333.642 283 329.5C283 325.358 286.358 322 290.5 322C294.642 322 298 325.358 298 329.5Z" fill="#C4C5DC"/>
<path d="M467 199.973C467 194.465 471.825 190 477.778 190H650.222C656.175 190 661 194.465 661 199.973V303.027C661 308.535 656.175 313 650.222 313H477.778C471.825 313 467 308.535 467 303.027V199.973Z" fill="url(#paint9_linear_1_12)"/>
<path d="M478 208.474C478 206.555 479.541 205 481.441 205H513.559C515.459 205 517 206.555 517 208.474V245.526C517 247.445 515.459 249 513.559 249H481.441C479.541 249 478 247.445 478 245.526V208.474Z" fill="white" fill-opacity="0.17"/>
<path d="M521 258.474C521 256.555 522.541 255 524.441 255H556.559C558.459 255 560 256.555 560 258.474V295.526C560 297.445 558.459 299 556.559 299H524.441C522.541 299 521 297.445 521 295.526V258.474Z" fill="white" fill-opacity="0.17"/>
<path d="M521 208.474C521 206.555 522.541 205 524.441 205H556.559C558.459 205 560 206.555 560 208.474V245.526C560 247.445 558.459 249 556.559 249H524.441C522.541 249 521 247.445 521 245.526V208.474Z" fill="white" fill-opacity="0.17"/>
<path d="M478 258.474C478 256.555 479.541 255 481.441 255H513.559C515.459 255 517 256.555 517 258.474V295.526C517 297.445 515.459 299 513.559 299H481.441C479.541 299 478 297.445 478 295.526V258.474Z" fill="white" fill-opacity="0.17"/>
<path d="M565 211.5C565 207.358 568.358 204 572.5 204H642.5C646.642 204 650 207.358 650 211.5V291.5C650 295.642 646.642 299 642.5 299H572.5C568.358 299 565 295.642 565 291.5V211.5Z" fill="white" fill-opacity="0.17"/>
<path d="M495.909 227.354C494.217 225.211 490.924 225.356 489.426 227.638L484.066 235.805C482.32 238.465 484.228 242 487.41 242H507.022C510.314 242 512.196 238.245 510.227 235.607L507.568 232.046C506.555 230.689 504.564 230.569 503.395 231.796C502.247 233 500.298 232.91 499.267 231.604L495.909 227.354Z" fill="white"/>
<path d="M538.909 277.354C537.217 275.211 533.924 275.356 532.426 277.638L527.066 285.805C525.32 288.465 527.228 292 530.41 292H550.022C553.314 292 555.196 288.245 553.227 285.607L550.568 282.046C549.555 280.689 547.564 280.569 546.395 281.796C545.247 283 543.298 282.91 542.267 281.604L538.909 277.354Z" fill="white"/>
<path d="M538.909 227.354C537.217 225.211 533.924 225.356 532.426 227.638L527.066 235.805C525.32 238.465 527.228 242 530.41 242H550.022C553.314 242 555.196 238.245 553.227 235.607L550.568 232.046C549.555 230.689 547.564 230.569 546.395 231.796C545.247 233 543.298 232.91 542.267 231.604L538.909 227.354Z" fill="white"/>
<path d="M495.909 277.354C494.217 275.211 490.924 275.356 489.426 277.638L484.066 285.805C482.32 288.465 484.228 292 487.41 292H507.022C510.314 292 512.196 288.245 510.227 285.607L507.568 282.046C506.555 280.689 504.564 280.569 503.395 281.796C502.247 283 500.298 282.91 499.267 281.604L495.909 277.354Z" fill="white"/>
<path d="M596.62 251.51C594.93 249.315 591.574 249.461 590.081 251.794L568.938 284.844C567.235 287.507 569.147 291 572.307 291H636.142C639.412 291 641.3 287.29 639.376 284.646L625.709 265.866C624.228 263.83 621.257 263.653 619.544 265.497L616.114 269.19C614.431 271.002 611.523 270.868 610.014 268.908L596.62 251.51Z" fill="white"/>
<path d="M510 217.5C510 219.433 508.433 221 506.5 221C504.567 221 503 219.433 503 217.5C503 215.567 504.567 214 506.5 214C508.433 214 510 215.567 510 217.5Z" fill="#C4C5DC"/>
<path d="M553 267.5C553 269.433 551.433 271 549.5 271C547.567 271 546 269.433 546 267.5C546 265.567 547.567 264 549.5 264C551.433 264 553 265.567 553 267.5Z" fill="#C4C5DC"/>
<path d="M553 217.5C553 219.433 551.433 221 549.5 221C547.567 221 546 219.433 546 217.5C546 215.567 547.567 214 549.5 214C551.433 214 553 215.567 553 217.5Z" fill="#C4C5DC"/>
<path d="M510 267.5C510 269.433 508.433 271 506.5 271C504.567 271 503 269.433 503 267.5C503 265.567 504.567 264 506.5 264C508.433 264 510 265.567 510 267.5Z" fill="#C4C5DC"/>
<path d="M633 234C633 238.971 629.194 243 624.5 243C619.806 243 616 238.971 616 234C616 229.029 619.806 225 624.5 225C629.194 225 633 229.029 633 234Z" fill="#C4C5DC"/>
<path d="M410 117.724C410 114.01 413.011 111 416.726 111H436.061C439.776 111 442.787 114.01 442.787 117.724V137.054C442.787 140.768 439.776 143.778 436.061 143.778H416.726C413.011 143.778 410 140.768 410 137.054V117.724Z" fill="#FFC04A"/>
<path d="M425.786 126.544C424.093 124.507 420.922 124.648 419.417 126.828L415.699 132.214C413.867 134.867 415.767 138.486 418.991 138.486H434.142C437.479 138.486 439.349 134.641 437.288 132.016L435.797 130.118C434.878 128.947 433.143 128.842 432.09 129.893C431.056 130.925 429.359 130.846 428.426 129.722L425.786 126.544Z" fill="white"/>
<path d="M437.369 116.986C437.369 118.919 436.25 120.486 434.869 120.486C433.488 120.486 432.369 118.919 432.369 116.986C432.369 115.053 433.488 113.486 434.869 113.486C436.25 113.486 437.369 115.053 437.369 116.986Z" fill="#C4C5DC"/>
<defs>
<filter id="filter0_d_1_12" x="305" y="187.927" width="42.2922" height="43.1281" filterUnits="userSpaceOnUse" color-interpolation-filters="sRGB">
<feFlood flood-opacity="0" result="BackgroundImageFix"/>
<feColorMatrix in="SourceAlpha" type="matrix" values="0 0 0 0 0 0 0 0 0 0 0 0 0 0 0 0 0 0 127 0" result="hardAlpha"/>
<feOffset dy="4"/>
<feGaussianBlur stdDeviation="7"/>
<feComposite in2="hardAlpha" operator="out"/>
<feColorMatrix type="matrix" values="0 0 0 0 0.533333 0 0 0 0 0.945098 0 0 0 0 0.858824 0 0 0 1 0"/>
<feBlend mode="normal" in2="BackgroundImageFix" result="effect1_dropShadow_1_12"/>
<feBlend mode="normal" in="SourceGraphic" in2="effect1_dropShadow_1_12" result="shape"/>
</filter>
<linearGradient id="paint0_linear_1_12" x1="319.25" y1="0" x2="442.61" y2="524.825" gradientUnits="userSpaceOnUse">
<stop stop-color="white" stop-opacity="0.16"/>
<stop offset="1" stop-color="#C4C4C4" stop-opacity="0"/>
</linearGradient>
<linearGradient id="paint1_linear_1_12" x1="319" y1="1.34022e-05" x2="657.888" y2="244.481" gradientUnits="userSpaceOnUse">
<stop stop-color="white" stop-opacity="0.17"/>
<stop offset="1" stop-opacity="0"/>
</linearGradient>
<linearGradient id="paint2_linear_1_12" x1="96.7753" y1="90.5029" x2="179.171" y2="427.829" gradientUnits="userSpaceOnUse">
<stop stop-color="white" stop-opacity="0.17"/>
<stop offset="1" stop-opacity="0"/>
</linearGradient>
<linearGradient id="paint3_linear_1_12" x1="315.417" y1="15.2334" x2="383.39" y2="224.788" gradientUnits="userSpaceOnUse">
<stop stop-color="white" stop-opacity="0.15"/>
<stop offset="1" stop-color="#C4C4C4" stop-opacity="0"/>
</linearGradient>
<linearGradient id="paint4_linear_1_12" x1="314.831" y1="147.041" x2="135.117" y2="201.28" gradientUnits="userSpaceOnUse">
<stop stop-color="#767799"/>
<stop offset="1" stop-color="#767799" stop-opacity="0"/>
</linearGradient>
<linearGradient id="paint5_linear_1_12" x1="338.205" y1="261.565" x2="525.789" y2="201.931" gradientUnits="userSpaceOnUse">
<stop stop-color="#767799"/>
<stop offset="1" stop-color="#767799" stop-opacity="0"/>
</linearGradient>
<linearGradient id="paint6_linear_1_12" x1="271.029" y1="213.491" x2="298.563" y2="343.085" gradientUnits="userSpaceOnUse">
<stop stop-color="#767799"/>
<stop offset="1" stop-color="#767799" stop-opacity="0"/>
</linearGradient>
<linearGradient id="paint7_linear_1_12" x1="41.8266" y1="126.113" x2="278.936" y2="434.827" gradientUnits="userSpaceOnUse">
<stop stop-color="#40416E"/>
<stop offset="1" stop-color="#5A5B8B"/>
</linearGradient>
<linearGradient id="paint8_linear_1_12" x1="243.691" y1="335.843" x2="507.404" y2="483.76" gradientUnits="userSpaceOnUse">
<stop stop-color="#40416E"/>
<stop offset="1" stop-color="#5A5B8B"/>
</linearGradient>
<linearGradient id="paint9_linear_1_12" x1="508.924" y1="223.028" x2="723.882" y2="525.486" gradientUnits="userSpaceOnUse">
<stop stop-color="#40416E"/>
<stop offset="1" stop-color="#5A5B8B"/>
</linearGradient>
</defs>
</svg>
